/* XPM */
static char *_066c42add5b4810db238f6e17cb9a1fBErgsRzdwwSG9fmc[] = {
/* columns rows colors chars-per-pixel */
"64 64 58 1 ",
"  c gray",
". c #C3C3C3",
"X c #C6C6C6",
"o c gray77",
"O c gray76",
"+ c #C8C8C8",
"@ c #C5C5C5",
"# c gray79",
"$ c gray78",
"% c #CACACA",
"& c #CBCBCB",
"* c #CECECE",
"= c #CDCDCD",
"- c #E6E6E6",
"; c #E7E7E7",
": c #E9E9E9",
"> c #EAEAEA",
", c gray91",
"< c gray92",
"1 c #ECECEC",
"2 c #EFEFEF",
"3 c gray89",
"4 c gray87",
"5 c #EEEEEE",
"6 c gray93",
"7 c gray95",
"8 c #F1F1F1",
"9 c gray94",
"0 c #E1E1E1",
"q c #BBBBBB",
"w c gray90",
"e c #E2E2E2",
"r c #BCBCBC",
"t c gray75",
"y c gray74",
"u c #F3F3F3",
"i c #F1F0F1",
"p c gray88",
"a c #DFDFDF",
"s c #F4F4F4",
"d c #EEEDEE",
"f c #EAE9EA",
"g c #C1C1C1",
"h c #C0C0C0",
"j c #EDEEED",
"k c #F0F1F0",
"l c #E4E4E4",
"z c #DDDDDD",
"x c #EFEEEF",
"c c #F0EFF0",
"v c gray96",
"b c #F2F1F2",
"n c #F3F2F3",
"m c gainsboro",
"M c #EEEFEE",
"N c #C5C4C5",
"B c #C4C3C4",
"V c white",
/* pixels */
" .XXoOooO.++X@o.+#$$$$$%+$$$+#++&&++@*&O.oOo@Xoo#.o@X@X@%+$=++# ",
"O-;;::>>,:,;;,::>>,:,><,-,,,:<::11>:,213::,:><:>2,:<1:><;,<-;:4.",
".>256162525552222657665617815999222888255552998992298<11:><><50q",
".>2561165525555555677855852>999926w982266655229225561988>><<12eq",
".>25666656555655522998522299562555288-<91165256665516617<165693r",
".>255555666665555222525922891652559989585655556652556<<91652993r",
".>25555991661225<2<><5525526,7>2612252262555256662629>65655285er",
".>25255986529655<9926555552516:91<22619529222556:<657>15655517w ",
"O:559>6556522525><2992998165251966652:216922616252259666655269et",
"O:559:66555555:625169565915592<256<7126615526566225669266656690 ",
"O:51>855228<655<52656922528695<2996595<95652251295166528652<:90y",
"O:56>856528<162<5996<88862966921998656>25622952952<8<;5116>7210r",
".:5556656<251162<55521581191<996529<621552875199192992256562220r",
".>556652852211625<6296812512<2>65225122992522>55<26599<1522229ey",
"O:55169>22692552255829u16<>5<86625261585<2i679,66<6266>6992222pt",
"O:56222>1>1552552552>796>2826556521261685691666266211258792552at",
"O:56519966659566555<12566995126525662269522:<922229692698592654t",
"O,551<22s559u<16<<852165188212565526295259226222295622615925554t",
"O,56552586>8iu6656562669662d18252552555269219<5522<5,2562961554t",
"O,6656252561<8565599251925222921226255256985555595695222222515at",
"O,18916656915<959>52251868<99996525252812186952266i552u5922566a ",
"O>8<>8255656562<1155516215626195622555<82685562555f12521595666a ",
"O:56562599529852,1555:526>6u><82555222659:29622978522u292956654 ",
"O:5126558822916926785169579925<225525256262982>956,5<9292225554t",
".:216551>928259<52825>5118255529222565<<9528916252615996595552at",
"g,9251556119256625262626<852u>22992256>18989585252<>9659622522ah",
"g,129522885:<658855665626552s<6299222561<<5228<952216162552559ah",
"g:2>22298825561>762522556552922222255566<<756812,6:6>522255259pt",
"g,615222995522666<956516>5989866256155556<2688221<25<2j55555590 ",
"g;65522292652956166922282159895162666511>5:689256<16681<6662290 ",
"g:255222256625295912999922<999866629265666>599262565<992222652at",
"O>2252556558595765519996,5682281169215256655986<6666<265552652ah",
"@,221561>8999222522652222k75>5212699159565216755u>6292121116994h",
" l56551<662992255569252257791<21682256226112576656559925<16129zt",
"h-566566561u66117562816665578155225565551:166562;52156<85656584t",
"O,55552266<1299u2>5291625599965222656299u1x5561722915622155568pg",
"o>5516221261<c88559152885529552299895885579258>5552686291155694t",
" l6666>:12555665529152<6655<655222615u2>952:266,25566929216559at",
"h;8>698w655526925255256266922295225165529515559>515<6256261652pg",
"Ow8<166:8<652298562255526529255298v9>>252512262<669;1552551152ah",
"@a<656<162552999<5195<62982222222527262611x5652555511519921152ah",
"@>255229225525115768<552666599222557952<616525252565661825<652ah",
"@>92229765595556529628875585985655162571<>615266915u566556>555ah",
"X:22229865525559665:b917556<<656521155225955225691951165525>12ah",
"@:92299922525569>1862862575:<51119222296595525552271<<65225>62ah",
"@:999999225522969129>9:528<1<929969955<65971655222221<65556<264h",
"o>9999992255222596821929u9656618825165685525915281895>>6656<914h",
"o>922289259956556222>599u52629191165916956682<1,26216559555<184t",
".:22778869952696529256999<66>9191166955<65552556552522552292624t",
".:25-n22178<2196551855982><729<55<;<5921652655625529995556<<154t",
".:251292592625121559572u8665526<99511225555655<25522556556<><6ah",
".:255529u9>16:126517725169782615921>61255555522162525565251<160h",
".:22229995>556281567985<12299<<69655>69>6255552622619222226162et",
".:25959216225658976865726s9981111,<>686<5555555585665222925652et",
".,2555925992222926<82578988i72652121629955552259s>166622922555mg",
".:252222152211999<<822s59266975251:655985225225226666122222259aq",
".:2552225522566555178982992229991662225552255555x5565555222252ar",
".>2552222222256522<88222222222896529922225562255526556625552224y",
"o>22522222259999225522222222299>6529922256515565j55552556552224y",
"o>2252222282929225255555555552916229992225665555225222556552524r",
"o>255222229292922555552222225295522222922229222225529>>72522594r",
".>2222922992969922222255555522222299992222929922222991512255254r",
".;222M6166659-155555561<<<<16555552225>>><1666<165221<1699<<2wpt",
"qONNNoOgOOO.X@O.....o@X++++$NB...oNN@@@@XXBO.o@X@oo@++++$$X$$X.r"
};
