/* XPM */
static char *c61437e7bceb43969d5a1d4dbd78c046SWXnVVPx67zeh7L8[] = {
/* columns rows colors chars-per-pixel */
"64 64 50 1 ",
"  c #CBBA8C",
". c #C9BB8E",
"X c #CBBA8E",
"o c #CCBB8D",
"O c #CDBA8F",
"+ c #CCBB8F",
"@ c #CABC8D",
"# c #C9BC8F",
"$ c #CBBD8E",
"% c #CABC8F",
"& c #CDBC8E",
"* c #CEBD8F",
"= c #CCBE8F",
"- c #CEBB90",
"; c #CABD90",
": c #CBBD90",
"> c #CBBC91",
", c #CBBE91",
"< c #CDBC90",
"1 c #CDBC91",
"2 c #CFBC91",
"3 c #CEBD91",
"4 c #CDBF90",
"5 c #CCBE91",
"6 c #CFBE90",
"7 c #CCBD92",
"8 c #CEBD92",
"9 c #CCBF92",
"0 c #CDBF92",
"q c #CDBE93",
"w c #CFBE92",
"e c #CFBE93",
"r c #CFBD95",
"t c #CEBF94",
"y c #D0BF91",
"u c #D0BD92",
"i c #D1BE93",
"p c #D0BF93",
"a c #D0BF94",
"s c #D0BE96",
"d c #CEC091",
"f c #CFC192",
"g c #CEC093",
"h c #CFC194",
"j c #CFC095",
"k c #D1C092",
"l c #D1C094",
"z c #D2C195",
"x c #D0C295",
"c c #D1C396",
/* pixels */
"gghhxxxx00000000ghhhhxxx00uuu0**000000ggxxxxhgg000000000g000ghgg",
"00gggggg0000uuuu0000gggg00006***00000000:00gghhh0000000000:00g00",
"0000000:000uuuuu::0000000000000000000000.%:00ggg0000u0000:::0000",
"00000::%000uuuuu:::00000000++*00gg00000000000:%%0000u0000:::0000",
"000000::000u0uuu00000000000++<00gg000000hhg00:%.u0<0uu0000:00000",
"000g0000000u00uu000000gg000<00000000000000gg0000u0<0uu0000:00000",
"000000000u0000000000000g000u000000000000:000ggggu0<000000:::0000",
"::000000000000000000000000uaaa00000000gg::00000000000000:%%%:00:",
"0000000u000::000::0000<<00uuuuuu00:00000000uxu0<00000000++000000",
"0000000u0000000:00guuuuu00u0uu0u00:000000000uuu<0000000000000000",
"0000uu0u%:0gg0:%:000000<00u0000000:000000000uuu000000000000000uu",
"0000000u:00gg00::::00<<<0000000000:000000000uuu00000000000000000",
"000uuu0u0000000000guuuuu0000000000:00000uu000uu00000000000000000",
"0000uu0u000::0000000uuuu000000uu00:00000uu0000uu0000000000000000",
"0000u00u00000000%::00<<+0000uuuu00:00000x0000000000000000000000<",
"0000u00u%:0gg0:%000uuuuu000uuuuu00:00000x00000u000000000000000<<",
"0000uu0000<<00uxu0000uuu000000000000uu00000uu00000000000000<++00",
"0000uu00u00<000u0000000000<000000000uu0<000uu00000000000000<++00",
"0000uu00uu0000<<00000000u0<0u0000000u00<0000u00000u0000000<<<<00",
"0<00uu000u00000000000000u0<0u0000000000<0000000000u0000000<<<<00",
"0<+00u00<0000000000uuu00u0<0uu0000000000000000000uu0000000<<0000",
"0++0uu00+0000000u00uuu00u0<0uu00000000000000u0000uu0000000<+0000",
"0<<0uu000000000000000000u0<00000000000000000u000uuu0000000<<0000",
"0<<0uu00000u000+00<++<000000000000000000000uu0000uu0000000<<0000",
"h00hh00h000uuuuu%%000rrhrraaaaaa::000gghggggg000u000000+0000gggg",
"h00hh00h000uuu00gghhhhhh00u0uuuu00000ggg000gggg00000u00+ggghhhhh",
"g00gg00g0000uu00gg0000000000000000000000:000gggg0000uu00:0000000",
"0::00::0000uuuuu**00000000000000g00000000000gg000000uu00:::::000",
"0::00::0+0000uxx*00g0rrh********gg0000000000000:0<<0uu00gggghhhh",
"0::00::0+0000uxx%%000rrh00000000gg000000000000::u0<00u0000000000",
"g00gg00g00000000%%%::>00000000uu000000000000000:u0000000%%::::00",
"g00gg00guuu0000000000000aaaaaaaa00000000%:000000uu00000000000000",
"0000000000::::0000000<<<000000000000000000<000000000000000000uu0",
"000000000000000000000<<<u0uu00uu00:0000000<000000000000000000uu0",
"<<0000uu000gg00000000<<<uuuu000000:000000000u0000000000000000uuu",
"<000u0uu.00000:%00000<<<0000000000:000000000u0000000000000000u<<",
"<<0000uu%:0000:%00000<<<0000000000:00000u0<0uu000000000000000<<<",
"<<0000u0000gg00000000<<<0000uu0u00:00000u0<0uu000000000000000<<<",
"000000000000000000000<uu0000uuuu00:00000u0<000000000000000000<<<",
"0000000000::::0000000<uu0000000000:00000000000000000000000000<<<",
"00u0<+0u000uu00<000000000000uu000000uu0000000000000000000<0000++",
"000000000000000<00000000u0000u000000uu00+<<000uu000000000<0000++",
"0000u0000000000000000000u0000000u0<00000+0<0u0uu00u0000000<0<<00",
"u0+<0u000000000000000000uu00000000<0u000000000<<0000000000<<<<00",
"u0+00u0<0000000000000000u000000<00<00000u0uu000000u0000000<<0000",
"u000000000000000000000000000000<00<0000000000000uuu0000000<<0000",
"0000000u0000uu0<0000000000<0uu00u0<00u0000000000uu000000<<000000",
"00u0<+0u000uuu0<000000000000uu00u0<00000uu000<++00000000<<000000",
":.:gh00h0000000000000000<0uaau00<<000uuu%:00ggghu0000000%*000000",
"h00xx00g000000000000ghxx<00uuu000000uuuugggggg00u00000000000grrr",
"h0gxh00g000000000000ghxx000uu000000uuuuugghhgg00u00000000000grrr",
"0.%0g00h00000uuu000000000000000000000000000ggggg00000000%%::0000",
":.%0g00g<00000000000:0000000000000000000::0000000000uu0<%%::0000",
"g00hh000<<00000u00000ghx00000000uuuuu000000000%.0000uu0<**000000",
"g00hg0:0000000uu00000ghh00<<0000uuuu0000gg000:..0000uu0<**000000",
"%.%0000g000000uu000:::::00<<<0000u000000000000000000uu0+...::><0",
"**000000g000::0000000uuu00000000%:00g000+000000u00:::00g00000000",
"**000u000000000:00000uuu00000000::000000+00000u0000::00g00000000",
"+*00uu00000000::00000u0000000000::000000<00000000000000000000000",
".+00ua00:000g0::0000000000000000::000000000000000000000000000000",
"+*000u00::0gg00:00000u0000000000::00000000<00u00000000::00000000",
"**00000a::000000:0000u0<00000000::0:000uu<<0uu000000000:00000000",
"000**00a:0000000:00uuu0<000000000::::00u0<+<ux00:000000000000000",
"u00++<0a00::000g:00uuu0<000000000::::00u0++<uxu0%:00g00000000000"
};
