/* XPM */
static char *_e7a55c34b35465aab9961340f0dcd4d7NvHUWo9V6KK700W[] = {
/* columns rows colors chars-per-pixel */
"64 64 222 2 ",
"   c #A07024",
".  c #A37327",
"X  c #A47428",
"o  c #A57529",
"O  c #A67529",
"+  c #A5752B",
"@  c #A6742B",
"#  c #A6762A",
"$  c #A7772B",
"%  c #A6762C",
"&  c #AA742A",
"*  c #AB752B",
"=  c #A8772B",
"-  c #AB772C",
";  c #AD772D",
":  c #AA792A",
">  c #A8782C",
",  c #A9782C",
"<  c #A9792D",
"1  c #AA792D",
"2  c #AB7A2D",
"3  c #A8782E",
"4  c #A9792F",
"5  c #AA782F",
"6  c #AA7A2E",
"7  c #AB7A2E",
"8  c #AB7B2F",
"9  c #AC7B2C",
"0  c #AD792E",
"q  c #AE782E",
"w  c #AF792F",
"e  c #AC7B2E",
"r  c #AC7B2F",
"t  c #AE7A2F",
"y  c #AF7B2F",
"u  c #AD7C2F",
"i  c #AF7E2F",
"p  c #AB7930",
"a  c #AA7A30",
"s  c #AB7B31",
"d  c #AC7A31",
"f  c #AF7B30",
"g  c #AE7A31",
"h  c #AD7B32",
"j  c #AF7B32",
"k  c #AC7C30",
"l  c #AD7C30",
"z  c #AD7D31",
"x  c #AE7D30",
"c  c #AE7D31",
"v  c #AF7E31",
"b  c #AC7C32",
"n  c #AD7D33",
"m  c #AE7C33",
"M  c #AE7E32",
"N  c #AF7E32",
"B  c #AF7F33",
"V  c #AF7D34",
"C  c #AE7E34",
"Z  c #AF7F35",
"A  c #B07A30",
"S  c #B17B31",
"D  c #B07C31",
"F  c #B07F30",
"G  c #B17D32",
"H  c #B27C32",
"J  c #B37D33",
"K  c #B07F32",
"L  c #B07F33",
"P  c #B27E33",
"I  c #B37F33",
"U  c #B07E35",
"Y  c #B37F34",
"T  c #B17F36",
"R  c #B47E34",
"E  c #B57F35",
"W  c #B18033",
"Q  c #B28132",
"!  c #B38233",
"~  c #B08034",
"^  c #B18034",
"/  c #B18135",
"(  c #B28134",
")  c #B28135",
"_  c #B38235",
"`  c #B08036",
"'  c #B18137",
"]  c #B28037",
"[  c #B28236",
"{  c #B38236",
"}  c #B38337",
"|  c #B48035",
" . c #B58135",
".. c #B48334",
"X. c #B58136",
"o. c #B68036",
"O. c #B78137",
"+. c #B48336",
"@. c #B48337",
"#. c #B68236",
"$. c #B68237",
"%. c #B78337",
"&. c #B58435",
"*. c #B58437",
"=. c #B68536",
"-. c #B78637",
";. c #B38138",
":. c #B28238",
">. c #B38339",
",. c #B48239",
"<. c #B78338",
"1. c #B5833A",
"2. c #B48438",
"3. c #B58438",
"4. c #B58539",
"5. c #B68538",
"6. c #B68539",
"7. c #B78639",
"8. c #B4843A",
"9. c #B5853B",
"0. c #B6843B",
"q. c #B6863A",
"w. c #B7863A",
"e. c #B7873B",
"r. c #B7853C",
"t. c #B6863C",
"y. c #B7873D",
"u. c #B88238",
"i. c #B98339",
"p. c #B88438",
"a. c #B88439",
"s. c #B98539",
"d. c #B88738",
"f. c #B9853A",
"g. c #BA843A",
"h. c #BB853B",
"j. c #B8873A",
"k. c #B8873B",
"l. c #BA863A",
"z. c #BA863B",
"x. c #B9853C",
"c. c #B8863D",
"v. c #BB873C",
"b. c #B9873E",
"n. c #BC863C",
"m. c #BD873D",
"M. c #B9883B",
"N. c #BA893A",
"B. c #BB8A3B",
"V. c #B8883C",
"C. c #B9883C",
"Z. c #B9893D",
"A. c #BA893C",
"S. c #BA893D",
"D. c #BB8A3D",
"F. c #B8883E",
"G. c #B9893F",
"H. c #BA883F",
"J. c #BA8A3E",
"K. c #BB8A3E",
"L. c #BB8B3F",
"P. c #BC883C",
"I. c #BC883D",
"U. c #BD893D",
"Y. c #BC8B3C",
"T. c #BD893E",
"R. c #BE883E",
"E. c #BF893F",
"W. c #BC8B3F",
"Q. c #BD8C3D",
"!. c #BF8E3F",
"~. c #BB8940",
"^. c #BA8A40",
"/. c #BB8B41",
"(. c #BC8A41",
"). c #BF8B40",
"_. c #BE8A41",
"`. c #BD8B42",
"'. c #BC8C40",
"]. c #BD8C40",
"[. c #BD8D41",
"{. c #BE8D40",
"}. c #BE8D41",
"|. c #BF8E41",
" X c #BC8C42",
".X c #BD8D43",
"XX c #BE8C43",
"oX c #BE8E42",
"OX c #BF8E42",
"+X c #BF8F43",
"@X c #BF8D44",
"#X c #BE8E44",
"$X c #BF8F45",
"%X c #C08A40",
"&X c #C18B41",
"*X c #C08C40",
"=X c #C08C41",
"-X c #C08F40",
";X c #C18D42",
":X c #C28C42",
">X c #C38D43",
",X c #C08F42",
"<X c #C08F43",
"1X c #C28E43",
"2X c #C08E45",
"3X c #C38F44",
"4X c #C48E44",
"5X c #C19041",
"6X c #C09044",
"7X c #C19044",
"8X c #C19145",
"9X c #C29145",
"0X c #C09046",
"qX c #C19147",
"wX c #C29246",
"eX c #C39246",
"rX c #C39347",
"tX c #C49347",
"yX c #C59148",
"uX c #C59448",
"iX c #C59549",
"pX c #C6964A",
/* pixels */
"J.4.} 4.} } } 4.} } } } z z } 4.J.} z z } } } z } 6 z 4.J.z 6 } 6X4.z } 4.} z z 4.z 6 z z 6 6 } # z 4.J.4.} 4.[.pX4.z } 4.4.4.4.",
"4.} 4.4.4.} } 4.} 4.4.4.4.} 4.4.[.J.4.4.4.J.4.4.4.4.4.} 4.4.z # [.4.z } 4.4.4.4.J.4.} 4.4.} 4.J.6X4.z z } 4.4.J.[.4.4.J.J.4.} 4.",
"4.} 4.J.J.} } } } } } 4.4.4.4.} 4.4.4.4.4.4.4.} J.[.[.} 4.[.4.# J.} z } 4.4.4.J.} 4.} } } 4.J.4.} 4.[.[.} 6 z 4.z z } 4.} 6 6 z ",
"4.} } 4.4.} } 4.4.} } } 4.4.4.} z z } 4.} } } } } J.J.4.4.J.J.} 4.} z } 4.4.4.4.z 4.} z 6 4.4.z   z [.6X} # 6 4.} 4.J.J.J.4.} 4.",
"4.} } 4.4.} } J.[.J.4.4.4.J.4.4.6 z } 4.4.4.4.4.z z } 4.4.z } J.} } } } } 4.4.} 4.J.J.} } J.4.} J.z   6 } 4.4.} } } } } 4.4.4.} ",
"J.} } } } } 4.J.J.J.4.} 4.4.4.4.6 z } 4.4.4.4.4.4.} } [.J.z } [.4.4.4.4.4.4.4.} 4.J.J.4.4.4.4.} J.} z } J.J.4.} } } z 6 z 4.4.} ",
"4.} } 4.4.} 4.J.z } } } } } 4.4.} z z } 4.4.} z [.J.4.J.J.J.4.4.} 4.J.4.} 4.4.} 4.} } 4.4.} } } 6 } [.6XJ.z z 4.4.[.[.J.J.[.6X[.",
"} } } J.J.4.} 4.6 } 4.J.4.4.J.[.J.4.} } 4.4.} 6 4.4.z 6 } [.J.6 z 4.4.} } 4.4.} 4.z z 4.J.} } J.J.} 6 z } } 4.J.# } J.} z } 4.4.",
"z J.# } } 6 [.4.z 4.J.J.4.4.J.J.z } } 4.J.[.[.J.6X4.} 4.4.} } } 4.J.4.} J.J.J.6XJ.[.} # 6 J.J.6 J.4.} z 4.[.4.6 J.J.4.6 6 } } z ",
"J.6X} J.[.4.pX[.} } } } } 4.4.} } } } 4.J.[.4.} } } 4.J.J.} } 4.4.J.} z 4.} z } } } } } 4.[.6X6X4.4.} } 4.[.4.z } 4.4.z } 4.4.} ",
"} 4.z } } z J.4.J.4.} z } J.4.} J.4.} 4.J.J.} z # 6 } J.4.} } 4.z 4.} } J.4.} 4.4.} 4.[.4.} 4.6X} } } } 4.J.4.} z } } } 4.J.J.4.",
"J.J.4.4.4.} J.4.J.J.} z } 4.4.} J.4.4.4.4.} } } 6 z } } } } } 4.z 4.} 4.[.J.4.J.4.4.J.J.} 6 6 } } 4.4.} } 4.4.4.} } } } 4.4.4.} ",
"[.J.J.} } } } 4.} 4.4.z 6 z z } J.4.4.4.} z } [.J.4.} z } } } } } J.4.} J.} 6 z 6 4.4.z z 4.4.z 4.J.4.} z } 4.4.J.4.} } } } z z ",
"J.} 4.z 6 } 6 } } 4.J.} 6 z } } 4.} } 4.} z 4.6XpX6X4.} } J.4.} z 4.4.4.J.4.z 4.z J.J.z } 6X[.z 4.J.4.} z } 4.4.[.4.} } } z z z ",
"6X4.6X4.4.6X4.6X4.J.J.4.} 4.4.} J.} z 4.J.4.4.[.J.[.[.4.4.J.4.} z 4.} } [.J.4.[.J.J.J.} } J.4.z } 4.4.} } 4.4.} 4.} } 4.4.} z } ",
"4.6 J.z z [.} [.} } } } } 4.} 6 [.z 6 J.6X[.4.4.# } [.J.4.4.} 6 D 4.} z 4.} 0 } 4.z z } } z z } z } 4.4.J.J.4.z } z } J.J.4.} 4.",
"J.z 6 D } 0 z 4.0 } J.[.[.[.[.[.J.4.J.J.4.z z } = 6 0 D k.1XI.D 1X@.@.I.k.z Y [.6X[.k.4.4.4.J.J.} z 4.z z J.4.J.J.6X[.z 6 } 4.} ",
"J.4.} 4.k.4.4.4.[.[.[.J.4.} z z 4.4.4.4.} } @.J.Y k.k.@.@.k.@.A I.i.m.4X4Xk.@.k.} 4.} z z 4.4.z 4.} J.} } [.J.[.4.4.z 6 z 4.4.} ",
"4.4.k.4.k.J.J.} z 0 0 z 4.I.6X6X4.} z } z z @.J.<.).3XI.R D R R i.@.@.i.v.k.@.D z @.4.z } J.J.z z 6 4.z z J.} } J.z 6 z 4.4.4.} ",
"} J.k.} 4.[.J.} [.4.} z } 4.4.@.J.4.} 4.} } } k.@.v.).v.@.R i.m.k.O.0 = 0 @.@.A 4.4.} 4.J.J.J.J.z 6 4.z } J.z } 6X4.} J.J.4.} } ",
"J.[.J.} @.[.[.4.pX[.k.@.} } z 6 J.4.J.[.[.J.k.J.R @.@.k.k.k.m.I.I.m.R A Y v.v.R [.z 6 4.J.z z [.4.4.6XJ.J.6X4.J.J.4.4.[.J.z 6 } ",
"J.J.@.z } 4.4.4.} } } @.k.J.I.I.} z } J.[.J.4.4.k.R D k.m.k.i.i.i.i.k.m.).I.<.D 1Xz 6 4.4.z z [.} } [.4.4.[.} 4.6 z } 4.} z 6 z ",
"k.} D } } z z D J.J.J.4.} } } } z 6 z } 4.} } } v.@.@.I.I.i.D R R D @.&X1X@.f D 4.4.} } 4.4.J.4.z 6 4.z z 4.6 z # z } } 4.4.} 6 ",
"[.@.} J.J.} z } I.I.J.4.z z } 4.J.4.} 4.4.4.} } k.<.k.&XE.@.D R k.D R I.I.f f k.# 4.4.6 z [.[.z 4.} [.4.4.[.4.4.z 4.4.4.J.6XJ.6 ",
"z @.4.} } k.J.4.0 z } 4.k.k.4.4.} 4.} z J.4.@.J.k.<.R D i.I.i.0 &Xi.R i.I.k.Y f 4.J.J.} 4.[.J.z 4.4.} z z } 4.J.} } 4.4.4.4.4.4.",
"D @.4.D D 4.4.} } @.4.k.J.k.4.4.} 4.z 6 } } 0 } @.@.D D i.m.i.A 4Xi.0 = - 0 <.1X6 } 4.J.J.J.4.z } } } } } } 4.4.} } 4.4.} } z z ",
"4.k.J.4.4.J.J.4.4.4.k.k.k.4.} } 4.J.} z 4.4.z @.@.@.Y Y k.&Xm.D k.i.i.i.@.@.k.1Xz } J.[.J.} } 4.z } 4.4.} } } } } } 4.4.4.} } z ",
"4.k.k.k.J.J.I.J.@.4.4.4.@.} D z 4.J.} } J.J.4.J.k.k.<.@.k.&Xm.R i.i.k.&X).k.k.k.6XJ.4.4.} 6 } [.z } 4.4.4.} } 4.4.4.4.4.J.J.J.J.",
"4.@.@.4.@.} } } } } } } } } } } } 4.} z v.v.@.J.k.v.k.@.i.m.i.A 1Xi.A D @.@.<.k.6X@.6 z z 6 z 4.} 4.J.4.} } 4.J.J.J.4.4.4.J.[.[.",
"J.k.4.4.@.z z z @.@.@.@.4.4.4.4.J.[.4.} J.4.} 4.k.k.k.@.@.@.R 0 &X@.D @.v.k.@.@.4.z 6 } 4.4.} } } 4.J.J.} } } J.J.J.4.} } } } 4.",
"I.4.4.J.k.} } 4.4.4.@.@.@.@.@.@.J.[.4.} J.v.@.k.k.k.k.@.O.i.@.A i.R @.I.1XI.<.@.D } } } } 4.4.4.z 4.J.J.} z z } 4.4.4.4.} } z z ",
"} z z 4.4.} 4.J.@.@.} } D D D D } 4.z z 4.4.Y 4.k.J.I.k.k.I.v.<.I.@.0 - - z k.tX} 4.4.# # z 4.4.# } J.J.4.z 6 z z } 4.4.4.} z 6 ",
"J.4.z z 6 z 4.4.[.4.} 4.J.4.4.4.% ,.~.r.8.4.4.} 6 6 z } Y f Z 4.z 4.4.D } [.J.z 4.4.4.4.4.4.4.4.} z 6 } } z z } } } 6 6 } J.J.z ",
"4.4.} } } 4.4.4.J.4.4.4.4.4.4.4.b 8.F.8.,.8.4.} r.4.r.J.F.8.4.~.4.[.J.} 4.J.J.z 4.4.4.4.4.4.4.4.4.} z } 4.4.J.[.4.J.4.} } 4.J.4.",
"} } 4.4.4.4.4.4.6 } 4.} } 4.4.} Z } } z Z ,.} z ~.r.8.r.J.r.r.J.} J.J.} z 4.4.} 4.4.4.4.4.4.4.4.4.} z } 4.4.J.[.z 4.J.4.} 4.[.[.",
"z } } 4.4.4.4.4.# 4.J.} } J.J.} ,.} Z } 4.r.,.z J.,.Z ,.r.r.4.r.z } 4.z z } 4.4.4.4.} } } } } } 4.4.} } 4.4.4.} 6 4.J.} z } J.J.",
"} } } } } 4.4.4.6 J.6X4.4.[.6XJ.4.,.,.J.6X@XJ.,.[.r.,.r.J.r.4.4.} 4.4.4.} 4.J.[.4.4.} } } } } } 4.4.J.J.J.J.4.} 4.J.4.} z z z z ",
"J.4.} } } 4.J.[.z 4.J.4.} J.J.4.,.Z ` J.@X~.,.Z [.r.r.J.J.,.} } 4.4.4.4.} } 4.4.4.4.4.} } } } } } } 4.4.4.J.4.} 4.4.} } } J.J.} ",
"J.4.4.} } 4.J.J.4.} } } } } } } ,.Z Z 4.J.,.z b Z Z ,.r.r.} Z } } } } } 4.} } } 4.4.4.} } } } } } } } z } 4.4.} } } } } 4.J.[.J.",
"4.4.4.} } } 4.4.[.4.} 4.J.4.4.4.@Xr.4.J.F.,.Z } # 6 } J.J.4.r.~.} z } 4.J.J.J.4.4.4.4.4.4.} } } [.[.4.z z 4.J.4.J.J.J.} } } } z ",
"[.4.4.} z 4.J.z z J.6X4.6 # z 4.6X} s ,.r.,.,.J.~.~.r.Z z ,.4.,.z J.6X6XJ.z z z # } 4.} } J.J.z } 6X6X4.} z z J.} } } 4.J.4.z # ",
"J.4.4.z # 6 z # z } 4.z # 6 z } 4.4.J.~.} % Z 6X@X@X~.4.,.4.r.,.z } 4.4.4.} } } } J.J.} } 4.} 6 6 4.} 6 z z z } J.4.} z } } } z ",
"[.J.6X[.} 4.[.J.[.[.J.} 4.J.[.J.4.z z 4.~.r.~.@Xr.~.~.r.r.F.r.} } z z } 4.J.J.J.} 4.4.z z 4.4.z 4.J.4.z J.[.J.J.J.4.} } } 4.} } ",
"} z 4.} 6 } J.4.4.4.} } 4.J.J.} ~.Z s ,.@X@XJ.r.6 Z 8.4.r.F.r.} 4.4.} } 4.4.4.4.} 4.4.z z 4.J.J.4.J.z 6 4.J.} } 4.} 4.4.J.J.} z ",
"4.z z z # z } # z 4.4.4.4.J.4.} r.~.@X X} 6 z r.# z ,.,.4.r.8.Z 4.4.4.4.} } } } [.[.J.4.} 4.J.J.} J.4.z 4.J.} 4.4.} } 4.J.J.} z ",
"[.4.4.4.4.[.[.} } J.[.[.J.J.[.J.8.4.4.4.,.} 4.r.Z 4.r.4.4.4.,.z 4.J.J.J.J.4.4.J.4.4.} } } 4.4.4.} [.J.4.J.[.[.6XJ.4.z z } 4.4.4.",
"} z 4.4.} J.[.4.z } } z z } } } 4.b # 6 r.@X[.4.4.J.J.4.,.4.,.Z 4.4.4.4.J.J.J.4.6 6 z } 4.4.4.4.6 } z 6 } } } 4.J.4.z z z 4.4.4.",
"J.J.[.J.z } J.} J.J.@.z D 4.J.k.,.r.r.} s s ,.r.4.r.r.,.} 4.r.,.4.D 6 6 } } z 6 J.J.J.[.J.4.} D 4.J.} z 4.4.} } } } z } 4.4.} z ",
"J.J.4.} } [.1X[.[.[.I.k.Y D @.@.).v.v.3X3XJ.v.).,.,.4.~.~.r.r.r.I.D D k.k.D D m.k.@.D D @.k.R f 0 <.J.@.} 4.J.v.1X4.I.6X4.} } z ",
"J.J.4.z z } 4.} k.@.D D R @.@.@.f 6 f <.r.<.<.J.r.,.<.v.~.v.v.).I.@.O.m.m.O.i.I.k.i.R @.k.k.i.@.Y 4.4.} 4.J.J.4.J.} 4.[.4.} 4.D ",
"4.4.4.z z } } z @.D 0 D i.m.i.D yX@X).).r.Z s f Y s 6 f f s f } @.@.@.@.i.i.i.i.i.i.i.i.i.i.i.k.<.@.} } 4.[.J.@.4.z 4.[.k.4.J.4.",
"z } } } } J.J.@.k.@.@.i.m.m.i.D v.r.v.~.).).@X@X).r.<.<.,.Y } 4.A R @.D R i.i.R D R R @.R R R @.@.} } } 4.J.k.@.} 6 } J.4.4.J.4.",
"z } } } 4.J.J.@.@.i.v.I.m.k.i.<.f Z Y Y Y ,.<.<.v.<.<.v.v.<.<.r.D i.k.i.i.m.m.i.J R R R J D R @.D } @.@.} } @.4.} 6 z 4.D z @.} ",
"4.4.4.} } } } 6 D @.k.m.k.i.i.k.).).v.Y f s s # f 6 s Y } Z Y ,.J R @.i.i.i.@.@.i.i.@.@.@.@.R @.D } 4.4.} z } J.J.z @.J.} } 4.@.",
"J.J.4.} } 4.} z @.<.i.k.i.k.@.@.Y 4.4.@.4.[.6X[.J.4.@.4.4.4.4.I.R w A i.i.D A R E.m.i.i.i.k.O.Y k.} @.k.4.} @.J.[.} 4.[.4.4.J.k.",
"4.4.4.4.4.[.[.J.1XI.k.k.m.k.R 0 <.J.k.} } v.J.4.[.k.} D z 6 z } k.A D I.I.D A i.1Xm.@.i.k.m.O.D ).@.} k.I.k.4.k.4.z } 4.D D 4.@.",
"[.4.z } 4.} z D 0 D Y @.i.i.@.R D } } W D z W @.B.} D } } D *.[.i.m.k.D D m.&Xk.R 0 w k.I.k.@.k.@.} 4.k.J.J.k.4.4.k.J.4.} z } } ",
"J.} z 4.J.J.J.J.@.@.@.@.i.i.k.k.I.4.@.@.4.B.4.4.z 6 0 W W i z @.@.k.k.i.i.k.i.R &Xk.i.k.m.k.i.k.@.@.4.4.4.k.k.k.0 z } @.} z z z ",
"[.4.} 4.J.4.4.4.1XI.k.@.J J R R I.*.D W 4.J.4.} B.k.J.1X[.J.4.4.@.@.k.I.I.@.D A @.@.R D R m.I.v.<.@.@.4.4.4.k.J.z D 4.J.J.J.} z ",
"J.4.} } } } D z I.k.@.Y A A A D k.} D W *.4.*.W B.k.B.J.B.*.D i h.R @.I.m.D 0 R ; R R 0 D I.&Xv.k.4.@.} @.4.4.J.} @.4.I.[.[.4.D ",
"z z z z } 4.4.@.0 A D @.i.k.k.k.k.*.*.*.*.*.*.d.*.*.W W ..*.W z &XO.D @.R A J m.R m.E.i.i.m.m.@.k.4.@.} } @.4.4.@.} } } 4.4.} z ",
"z } 4.} } 4.4.@.Y @.k.I.m.k.i.@.@.*.*.*.W W *.k.*.*.W D *.Y.I.k.&Xi.D D D D i.&XD i.m.k.i.k.i.@.<.4.@.@.@.@.4.4.4.} } D } } D D ",
"4.J.J.4.4.4.4.D k.m.I.I.m.i.D 0 @.@.W W W ....@.i i 0 : i *.*.i i.i.O.J R k.I.m.A A R i.i.R i.I.@.@.4.4.4.@.} } 4.4.4.4.@.4.4.J.",
"z 4.4.4.4.J.I.4.f D @.k.k.k.k.k.1Xk.@.*.B.Q.B.*.Q.1XI.k.B.5XQ.W w i.h.O.i.&X&Xi.&Xk.k.m.i.A D I.@.@.4.4.4.@.} } D @.4.k.4.4.J.I."
};
