/* XPM */
static char *_bba2ec488694b62deefbf5924fe7bf80yczeD19CfwKMece[] = {
/* columns rows colors chars-per-pixel */
"64 64 129 2 ",
"   c #B1AE47",
".  c #B2AE4B",
"X  c #B6B24E",
"o  c #B8B54E",
"O  c #BBB84F",
"+  c #B6B251",
"@  c #BAB653",
"#  c #BDB955",
"$  c #BBB659",
"%  c #BEBA59",
"&  c #C1BE57",
"*  c #C1BD5B",
"=  c #C3BE61",
"-  c #C5C15E",
";  c #C8C55E",
":  c #C6C261",
">  c #CAC662",
",  c #CDC965",
"<  c #CBC669",
"1  c #CDC968",
"2  c #CFCB68",
"3  c #CECA69",
"4  c #CDC86A",
"5  c #CEC96B",
"6  c #CFCB6A",
"7  c #CEC96D",
"8  c #CFCA6C",
"9  c #CFCB6A",
"0  c #D0CD62",
"q  c #D0CD64",
"w  c #D1CE65",
"e  c #D0CD66",
"r  c #D1CE67",
"t  c #D2CF66",
"y  c #D1CE66",
"u  c #D0CC68",
"i  c #D0CC69",
"p  c #D1CD69",
"a  c #D2CF68",
"s  c #D1CD6A",
"d  c #D0CC6B",
"f  c #D2CE6A",
"g  c #D2CE6B",
"h  c #D3CF6B",
"j  c #D0CB6D",
"k  c #D0CB6F",
"l  c #D1CD6C",
"z  c #D3CF6C",
"x  c #D2CE6D",
"c  c #D1CC6E",
"v  c #D2CD6F",
"b  c #D3CF6E",
"n  c #D2CE6A",
"m  c #D3D164",
"M  c #D3D065",
"N  c #D3D067",
"B  c #D4D166",
"V  c #D5D366",
"C  c #D5D267",
"Z  c #D6D467",
"A  c #D4D167",
"S  c #D3D069",
"D  c #D4D168",
"F  c #D5D269",
"G  c #D6D368",
"H  c #D4D16A",
"J  c #D5D26B",
"K  c #D6D36A",
"L  c #D7D568",
"P  c #D7D469",
"I  c #D7D46B",
"U  c #D4D06C",
"Y  c #D4D06D",
"T  c #D5D16D",
"R  c #D6D36C",
"E  c #D5D16E",
"W  c #D4D06F",
"Q  c #D6D26E",
"!  c #D6D26F",
"~  c #D7D36F",
"^  c #D7D46D",
"/  c #D5D26C",
"(  c #D8D56A",
")  c #D8D56C",
"_  c #D9D66D",
"`  c #D8D56E",
"'  c #D9D66F",
"]  c #D8D56D",
"[  c #DBD86F",
"{  c #D0CB70",
"}  c #D1CC70",
"|  c #D2CD71",
" . c #D3CE70",
".. c #D4CF71",
"X. c #D3CE71",
"o. c #D5D170",
"O. c #D7D370",
"+. c #D6D271",
"@. c #D5D072",
"#. c #D7D372",
"$. c #D6D271",
"%. c #D8D470",
"&. c #D8D471",
"*. c #D9D571",
"=. c #D9D572",
"-. c #D8D473",
";. c #DAD672",
":. c #DAD673",
">. c #DBD773",
",. c #D8D375",
"<. c #D9D574",
"1. c #DBD774",
"2. c #DAD675",
"3. c #D9D476",
"4. c #DBD776",
"5. c #D9D571",
"6. c #DBD871",
"7. c #DDDA73",
"8. c #DCD874",
"9. c #DDD975",
"0. c #DDD976",
"q. c #DCD877",
"w. c #DEDA76",
"e. c #DEDA77",
"r. c #DFDB77",
"t. c #DCD874",
"y. c #DBD678",
"u. c #DFDB78",
"i. c #E1DD79",
/* pixels */
"                                                                                                                                ",
"@ j : $ 8 < * v v 5 @ X - , , W # v : # 5 , * v 5 5 * @ - > < +.% 5 , @ 5 v % +., d : @ % : 5 W # , , # , , # W > , * @ * > , W ",
"+ v < = ..5 * W u.@ @ * @ - -.d @ v , * v , * v 4.% % * + * +.+.% d v * v v % +.+.: % % @ * v 4.@ d d * d d # W -.# # * X * -.W ",
"+  .5 : ..5 - +.- X > W # @ , d + v 5 - v < * +., + * d % # 5 5 % v W * d 5 # +.< @ * 5 * % , d @ d W - d , # -.> X * r # # , , ",
"@  .< * d < * -.. * d -.d # # d @ v < % , > * +.@ * < W v * # d # d d % , , # +.% X , 0.< # : < @ d d * , , # -.@ * > W d & # H ",
"@ v : $ 5 < * +.# W d d i., # W @ d : @ < > * W @ W v d 0.> # 4.% d , @ > , # +.* * v u.d - > d # d , @ > , # -.@ d d H 0.; # 0.",
"@ d - @ 5 < * v , -.d , 7.H ; W # d - @ , < * W > -.W d -.d > -.% , < @ , d # W , d v +.-.d , W # , , @ > , # W > -.d d 7., ; 0.",
"@ 5 * @ d , * d , -.-.W r r r S # d - # d , * d d W W d W W v d % , > @ 5 v % W d -.d d u.-., v # , , # , d # H d W d d W W d H ",
"@ +.v , -., * W W W H H H H H H @ W d , -., * W H W W W W W W H # W -., W , # -.H W W W W W W H # W -., W , # -.W W W W W W W W ",
"+ d , - W > # d W W H H H H H H @ d , - d > # d H W W W W W W H # , d - d > @ ` H W W W W W W H # , d - r > @ W W W W W W W W W ",
"@ d > * d , * W H H H H H H H H # d ; * d > * W H W W W W W W H & , , * , , # -.H W W W W W W H * , , * , , # -.W W W W W W W W ",
"# d - % d , - -.H H H H H H H H # d - # d , * W H W W W W W W W * , , # , , # -.H W W W W W W W * , , # , , # -.W W W W W W W W ",
"@ , * @ , > & H H H H H H H H H # , * @ , ; # H H H H W W H H H # > ; o > > @ ^ H H H W W H H H # > > @ > > @ W W W W W W W W W ",
"@ d - * d > & H H H H H H H H H # r ; & r > & H H H H W H H H H # , , # , , @ ` H H H W W H H H # , , # , , @ W W W W W W W W W ",
"@ W d > -., * ^ H H H H C C C H # H r ; ^ , - ` H H H W ^ H H H # N H ; d , # ` H H H W W H H H # d W - d , # -.W W W W W W W W ",
"X d d > W > # H H H H H C C C C o H r ; ^ ; # H H H H ^ ^ H H H o r W ; r > o H H H H H W H H H @ d W > d > @ W W W W W W W W W ",
"@ W , - d - # ` r H I ( I C N N # H ; # H r - H r I ` H H ^ ^ S # W > # , > * H , H I H H C C 0 # , , # , , # -.d H W W W d d H ",
"@ , - # , - # H H H I I C H Z H O r - @ , > & r S H W d d H ^ H @ v > # > - & H S I ` C C Z Z C # , > @ > > @ W W W W W h W W W ",
"@ < * @ , > * S W H H H C C H H O r - o , ; & d H W H r r H ^ H @ d : @ > - * H H I H N N C I H # , > @ > > @ -.` W W d d W W W ",
"@ d : * W , * W H H N N C C C N @ S > & d , - H H W H d S ^ ^ S @ v > * , > * W S H H r N H C r # , , * r , # -.W H d d h W H H ",
"@ W d , ` , * W H S S H I I H r o W , - -.d - W W W W W W -.W d @ W 5 - W , * H S H H H H ` H r # 5 d - W d # +.W W h W +.+.W d ",
"+ W d , W > # W ^ H S H ` ` W S X d , - W , * d W W W W W -.W d @ W d > W , * H W ^ H H ^ [ ` d @ , d - W d @ W -.W W W -.-.W d ",
"@ d < - d > # W -.W , , d H W W X d > * d > * d W W d , d ` W d @ W , * d , * W -.W d , d ^ -.d # , , * 5 , @ W -.W u u v W W W ",
"@ , * # d , * W -.d > - > , d d o d > # > - * W -.H , ; , S W d @ d > # > - * W -.W > - ; d W d * 5 , # , , # -.-.d > - < d v v ",
"# , # @ d , % 5 -.< # @ % > v -.@ , * @ , , * v -., # @ * > d +.* , > X > , # W 4., # @ % > d W % 5 > + > 5 # W 4.< % @ % < v 4.",
"# d > - W , * W , - # @ @ * , W @ d > % d , * v , - # @ @ * < W # r d * , , # +.5 - # @ @ * < v % 5 5 % 5 d # W 5 : % @ @ * , +.",
"X d d > W > * -.* % % @ @ @ : +.@ W 5 - W 5 * v * # # @ @ @ - d @ d -.- d d # -.- * % @ @ @ : v @ v +.: v v % +.* % % @ @ @ : +.",
"X d , > H > % W % % @ # @ @ : +.@ W d : W , * W * # @ # @ @ - v @ d W - d d # -.* % @ # @ @ =  .@ v +.: v d % -.% % @ # @ @ : +.",
"# d > * S , * O.* @ @ $ $ $ =  .@ W , * 5 > * +.* @ + @ # @ * d # 2 , # , d # W - @ @ $ $ $ = j $ j v % < < % 4.* @ @ $ $ @ = v ",
"# 2 * @ r > * v * @ @ * % $ =  .$ v : @ < > * +.* @ @ % % @ * 5 * , ; X > , # W * @ @ * % $ = 8 % 8 5 @ : < $ 4.* @ @ * % @ * v ",
"# , * @ , > # d # @ = 5 : $ =  .% v : @ 5 , * +.% # * , : @ % 5 # 2 > @ > , # +.% # = < : $ % 8 * 8 < @ < 5 % ,.$ $ = 5 : @ * v ",
"# d > * d > * +.@ % 5 4.5 $ * +.% d : # v d : W @ * 5 -.5 # * v # d d # > < # 4.% * 8 4.5 $ %  .* d , # 5 v % +.@ % 5 4.5 @ * +.",
"o H r , -., * W X W - + 5 < @ +.@ W W , -., * W + W - @ -.d # 5 # v -.> +.5 @ +.# v < * 5 < * 5 # -.W , -., * +.+ 4.- X -.5 @ W ",
"o r > - W > # d W > @ + * , d d @ d , - W > # d d > * # * > r H % 5 v - v 5 @ +.v < - * # : v +.@ d , - d - # d d , * @ * > , -.",
"@ , - * d > * W 0.X @ - X - 4., # d > * d > * W 0.@ # ; X * -.d * 5 5 % 5 5 # +.0.# * : X % 4.+.# d - * d > # W -.# # - X * -.W ",
"@ , * # , > * W - . > -.@ X , d # , - # r > * W , . - W # # d > * , > @ , 5 # +.< @ * d * % < d * d - # , > * W > X * d * # , u ",
"@ > & @ , > # d X # H 0., @ * W # , * @ , ; # W # # , 0.W * * > % > - @ > , @ W + - , W -.* @ d # d * @ , > * W X * , -.W * # d ",
"@ d > * d , * W - d d d -.> * W # W > * d , * -.# d W W 0.> * W * d , * d d # -.# W W W u.< # -.# d > * d > * W @ W W W 0.> # -.",
"@ W d > -., * -.d ` d d 6.W , d * -.d > W , - -., -.W d ` H , -.* W W > W d # -., W +.W +.v d W # W d > W , * W > -.W d 7.H > 7.",
"X d , > W : @ d d W -.-.d H H , @ d , - d - # d W d W d d -.-.d @ 5 W - d < + v 4., W -., +.u.> @ H r > H - # d d W W d W -.W d ",
"@ d < * v < * W W W H H H H H H # d > * d > & W H W W W W W W H # r d * , d # W W W W W W W W H # d d # , d # -.W W W W W W W W ",
"@ 5 : % 5 : # W W W H H H H H H @ r - # , - # W H W W W W W W H # , , @ > , # W W W W W W W W H # , , @ > , # W W W W W W W W W ",
"@ 8 : % 5 : % W W W H H H H H H # r - # , - # W H W W W W W W H # , , @ > , # W W W W W W W W H # , , @ > , # W W W W W W W W W ",
"$ v < = ..< * +.W W H H H H C H # d > - d > * W H W W W W W W H # d d * 2 d # W W W W W W W W H # d d # , d # ` W W W W W W W W ",
"$  .8 < 4.5 * W W W H H H C C H @ W , > ` , * W H W W W W W W H # r S - S S # W H H H W H H H H # d d * d d & ` W W W W W W W W ",
"+ j < > ,.5 * d W H H H C C C H o d , > W , & d H W W W W W W H o , r * r r # H H H H W H H H H @ , d * r r # H W W W W W W W W ",
"$ { < =  .< % W W H H H C C C C @ d > * d > & H W W W W W W W W @ , , # , , # H H H H W ^ H H H # , , # > , # W W W W W W W W W ",
"$  .> * j < * W W H H H C C C C # d > * , > & W W W W W W W W W # r , o ; , # ` H H H I ^ H H H & d , @ - , # -.W W W W W W W W ",
"@ 5 * + > > * r W N r C H C N N O 2 & o > ; # , H H H r S ^ W d @ , > X - > @ H H I H N C I C 0 & , -   - > # H H H S H W ^ H S ",
"@ W , * d , - ^ ` H H C H C C I O H , - S , - H ^ ` ` S S ^ ^ H # d d * d d # ` ^ ` ` C C I Z C # r d & , r # ` ` ^ H H H W ^ W ",
"X W d > W > * ^ W I I I C C H ( o H r ; H , & H W ` ` H S H W H # d v - d d # H H ` ` H r C I C o r ^ ; S r # ^ ^ ^ ` ^ H S H W ",
"X v 5 - d > * W r H ` I H C C H o S , - S , & r S ` -.W S H H d @ , d * d d # W r H ` H r C C N o 2 S - r 2 # H H H ` W S r r d ",
"# v > * d , - W r H ` I H ( I N # W > & d , - d d W -.W W W W d % d d # , d # -.r H ` H H H H r * d , # , d * -.d W ` -.W W d d ",
"# d - @ , , * d d ^ ` S H 7.6.S * d * @ , , * d W ~ W W W -.-.d # 5 , @ ; , # -.H ^ H H W ` ` S * , > X > , # W W W W W W ` W H ",
"@ d - # , > * d W W , - , -.-.d # d - @ > > * d ` H , > , ` -.W # , > @ - > @ W -.W , > , ` -.W # , > o > > @ W -.h > > d W -.W ",
"@ W d - d > * -.W d - @ * W -.d # W , * , > - -.-.r * # - d W W * d d # , d * -.0.d - # - d W d @ d W - , , # -.-., * * > d W W ",
"X W d > H , * W W - @ + % < v +.@ d , > +., * v W > @ @ # > d +.# d W * d d # +.W > # @ % > v -.+ W v > v > * W d > # @ % > v 4.",
"@ W , * r > * W : * @ @ @ * 5 +.@ d > * d > * W > * @ @ @ * < W # d d * , , # W > * # @ @ * , W @ W , * , : * W - * # @ @ * , -.",
"# d - @ > ; * W @ # % # + + : +.# d - # , - % W # # # @ @ @ - W @ , , # > > @ W % % # # @ @ : +.# W > @ > - * W # # # # @ @ : W ",
"# d - @ , > * d @ @ % % + + : 4.% d - # , - % W # @ @ # @ @ - W # , , # > > @ W % @ @ % $ @ : ..% W : @ < > * v @ @ # # @ @ - +.",
"@ r - # , , * d # @ % % $ + = @.@ v < * v < % W * @ @ % # @ - v # r d # > , # -.* @ @ % $ $ =  .% W < % 5 < * v % @ @ % # @ - +.",
"o r > * d , * d % @ % = % @ = X.@ v < : W < * W * @ @ * * @ * d # r d # , , # -.* @ $ * * $ = { @ +.5 * v < * v % @ @ * % @ * v ",
"o r , * , > % d % % : 8 > $ =  .$ v < - v < * W % % : 5 > @ * d # r d * , , # W % % : 5 : $ %  .@ +.5 - 5 > * +.@ # : 5 : @ * v ",
"X d , & , - % W # * j y. .% = @.$ v < * v > * +.# * v 0.d # * W @ r d * , , @ W @ * v y.8 $ = ..@ +.5 * , : * +.@ * v 0.5 @ * +."
};
