/* XPM */
static char *_02be131064e4708ab33220b8df26d75smW21fN9LnYLBPQY[] = {
/* columns rows colors chars-per-pixel */
"64 64 123 2 ",
"   c #000101",
".  c #05070A",
"X  c #06090C",
"o  c #0A0E12",
"O  c #0D1116",
"+  c #0E1419",
"@  c #11171C",
"#  c #13191F",
"$  c #131C24",
"%  c #181F25",
"&  c #261320",
"*  c #18232D",
"=  c #1A2530",
"-  c #520C13",
";  c #630D17",
":  c #631216",
">  c #243342",
",  c #2B3B4C",
"<  c #2E4356",
"1  c #31455A",
"2  c #364D63",
"3  c #384B62",
"4  c #37546F",
"5  c #3C566F",
"6  c #3C5670",
"7  c #3F5871",
"8  c #4E4C69",
"9  c #43596E",
"0  c #4C5E6F",
"q  c #535A66",
"w  c #505F6F",
"e  c #425C76",
"r  c #435E78",
"t  c #54616F",
"y  c #5D656F",
"u  c #46617B",
"i  c #50687F",
"p  c #656963",
"a  c #6D6D60",
"s  c #61676F",
"d  c #66696F",
"f  c #6B6B6F",
"g  c #757064",
"h  c #7F7562",
"j  c #B6142B",
"k  c #B51F28",
"l  c #C81C2E",
"z  c #E11736",
"x  c #E61A36",
"c  c #FE123F",
"v  c #F7193B",
"b  c #FD1B3C",
"n  c #C7242B",
"m  c #E22033",
"M  c #E32831",
"N  c #FC2D37",
"B  c #F72438",
"V  c #FD243A",
"C  c #FE2C38",
"Z  c #FB3634",
"A  c #FB3F32",
"S  c #FA472F",
"D  c #F9522C",
"F  c #F95B2A",
"G  c #FB4132",
"H  c #FB4D32",
"J  c #FB5430",
"K  c #FB5E30",
"L  c #F86427",
"P  c #F86D25",
"I  c #F9642B",
"U  c #F96D29",
"Y  c #E0722B",
"T  c #F77522",
"R  c #F87622",
"E  c #F97229",
"W  c #F97B2C",
"Q  c #E17732",
"!  c #A71D4C",
"~  c #FF0144",
"^  c #FE0941",
"/  c #8B7A6E",
"(  c #F8812E",
")  c #FC972F",
"_  c #FC982F",
"`  c #FB8532",
"'  c #FD8D31",
"]  c #FC9332",
"[  c #FD9B32",
"{  c #FCAE38",
"}  c #FDB032",
"|  c #FEB933",
" . c #FDB73A",
".. c #FDB83A",
"X. c #FEC33C",
"o. c #97806E",
"O. c #9A816E",
"+. c #A7876E",
"@. c #A8876E",
"#. c #A8886E",
"$. c #B78E6E",
"%. c #B88F6E",
"&. c #BA906E",
"*. c #E79A5D",
"=. c #FBAB44",
"-. c #FAA84E",
";. c #FBB347",
":. c #FCBB4A",
">. c #FCBC4A",
",. c #FAA655",
"<. c #FBB557",
"1. c #C5956E",
"2. c #CA976E",
"3. c #CC986E",
"4. c #E8A56A",
"5. c #FBB260",
"6. c #4A6580",
"7. c #516980",
"8. c #5A748D",
"9. c #5C7790",
"0. c #5F7A93",
"q. c #617F9B",
"w. c #6785A2",
/* pixels */
"~ ~ ~ ~ ~ ~ ~ ~ ~ ~ ~ ~ ~ ~ ~ ~ ~ ~ ~ ~ ~ ~ ~ ~ ~ ~ ~ ~ ~ ~ ~ ~ ~ ~ ~ ~ ~ ~ ~ ~ ~ ~ ~ ~ ~ ~ ~ ~ ~ ~ ~ ~ ~ ~ ~ ~ ~ ~ ~ ~ ~ ~ ~ ~ ",
"~ ~ ~ ~ ~ ~ ~ ~ ~ ~ ~ ~ ~ ~ ~ ~ ~ ~ ~ ~ ~ ~ ~ ~ ~ ~ ~ ~ ~ ~ ~ ~ ~ ~ ~ ~ ~ ~ ~ ~ ~ ~ ~ ~ ~ ~ ~ ~ ~ ~ ~ ~ ~ ~ ~ ~ ~ ~ ~ ~ ~ ~ ~ ~ ",
"^ ^ ^ ^ ^ ^ ^ ^ ^ ^ ^ ^ ^ ^ ^ ^ ^ ^ ^ ^ ^ ^ ^ ^ ^ ^ ^ ^ ^ ^ ^ ^ ^ ^ ^ ^ ^ ^ ^ ^ ^ ^ ^ ^ ^ ^ ^ ^ ^ ^ ^ ^ ^ ^ ^ ^ ^ ^ ^ ^ ^ ^ ^ ^ ",
"^ ^ ^ ^ ^ ^ ^ ^ ^ ^ ^ ^ ^ ^ ^ ^ ^ ^ ^ ^ ^ ^ ^ ^ ^ ^ ^ ^ ^ ^ ^ ^ ^ ^ ^ ^ ^ ^ ^ ^ ^ ^ ^ ^ ^ ^ ^ ^ ^ ^ ^ ^ ^ ^ ^ ^ ^ ^ ^ ^ ^ ^ ^ ^ ",
"c c c c c c c c c c c c c c c c c c c c c c c c c c c c c c c c c c c c c c c c c c c c c c c c c c c c c c c c c c c c c c c c ",
"c c c c c c c c c c c c c c c c c c c c c c c c c c c c c c c c c c c c c c c c c c c c c c c c c c c c c c c c c c c c c c c c ",
"c c c c c c c c c c c c c c c c c c c c c c c c c c c c c c c c c c c c c c c c c c c c c c c c c c c c c c c c c c c c c c c c ",
"b b b b b b b b b b b b b b b b b b b b b b v z z v z z v b b b b b b b b b b b b b b b b b b b b b b b b b b b b b b b b b b b ",
"b b b b b b b b b b b b b b b b b b b b b b x - - j - - x b b b b b b b b b b b b b b b b b b b b b b b b b b b b b b b b b b b ",
"V V V V V V V V V V V V V V V V V V V V V V B m l ; l m B V V V V V V V V V V V V V V V V V V V V V V V V V V V V V V V V V V V ",
"V V V V V V V V V V V V V V V V V V m m B m m V V m V V V V V V V V V V V V V V V V V V V V V V V V V V V V V V V V V V V V V V ",
"N N N N N N N N N N N N N N N N C M - - k - - M C C N N N N N N N N N N N N N N N N N N N N N N N N N N N N N N N N N N N N N N ",
"N N N N N N N N N N N N N N N N N N M n : n M N N N N N N N N N N N N N N N N N N N N N N N N N N N N N N N N N N N N N N N N N ",
"N N N N N N N N N N N N N N N N N N N N M N N N N N N N N N N N N N N N N N N N N N N N N N N N N N N N N N N N N N N N C N N N ",
"Z Z Z Z Z Z Z Z Z Z Z Z Z Z Z Z Z Z Z Z Z Z Z Z Z Z Z Z Z Z Z Z Z Z Z Z Z Z Z Z Z Z Z Z Z Z Z Z Z Z Z Z Z Z Z Z G G G G G Z Z Z ",
"Z Z Z Z Z Z Z Z Z Z Z Z Z Z Z Z Z Z Z Z Z Z Z Z Z Z Z Z Z Z Z Z Z Z Z Z Z Z Z Z Z Z Z Z Z Z Z Z Z Z Z Z Z Z Z G ` ] ] ] ` G Z Z ",
"A A A A A A A A A A A A G G A A A A A A A A A G A A A A A A G A G G A G A A A A A A A A A A A G A A A A A A A G H H H H H G A A ",
"G G G G G G G G G G G H G G G G G G G G G G G G G G G G G G G G G G G G G G G G G G G G G G G G G G G G G G G G G G G G G G G G ",
"S S S S S S S S S J K ` J S S S S S S S S S S S S S S S S S S S S S S S S S S S S S S S S S S S S S S S S S S S S S S S S S S S ",
"S S S S S S S J K ' ' K S S S S S S S S S S S S S S S S S S S S S S S S S S S S S S S S S S S S S S S S D S S S S S S S S S S S ",
"S S S S S S D ' ] K D S S S S S S S S S S S S S S S S S S S S S S S S S S S S S S S S S S S S S S S S D ` K J J S S S S S S S S ",
"D D D D D D D F F D D D D F D D D D D D D D D D D D D D D D D D D D D D D D D D D D D D D D D D D D D D I ] [ ] I F D D D D D D ",
"D D D D D D D D D D D F I ' F D D D D D D D D D D D D D D D D D D D D D D D D D D D D D D D D D D D D D D F F I ] ] I F F D D D ",
"F F F F F F F F F F U ] ] U F F I I F F F F F F F F F F F F F F F F F F F F F F F F F F F F F F F F F F F F F F I U ] [ ] I F F ",
"F F F F F F F F F I ' U I F I U ] ] I F F F F F F F F F F F F F F F F F F F F F F F F F F F F F F F F F F F F F F F I I I F F F ",
"L L L L L L L L L I U L L U ] ] E U I L L L L L L L L L L L L L L L L L L L L L L L L L L L L L L L L L L L L L L L L L L L L L ",
"L L L L L L L L L L L L L L U U L L L L L L L L L L L U E E E E E E E E E U L L L L L L L L L L L L L L L L L L L L L L L L L L ",
"L L L L L L L L L L L L L L L U U L L L L L L U U U W } | | | | | | | | | } W U U U L L L L L L U U U L L L L L L L L L L L L L ",
"P P P P P P P P P P P P P P E _ _ E P P E E W {  . ...X.X.X.X.X.X.X.X.X.X.X... . .{ W E E P P E ) [ ) E P P P P P P P P P P P P ",
"P P P P P P P P P P P P P P P R R P P W =.;.;.:.>.>.>.>.>.>.>.>.>.>.>.>.>.>.>.>.>.:.;.;.=.W P P R R R P P P P P P P P P P P P P ",
"T T T T T T T T T T T T T T T T T T ( -.<.<.<.<.<.<.<.<.<.<.<.<.<.<.<.<.<.<.<.<.<.<.<.<.<.-.( T T T T T T T T T T T T T T T T T ",
"R R R R R R R R R R R R R R R R R ` ,.5.5.5.5.5.5.5.5.5.5.5.5.5.5.5.5.5.5.5.5.5.5.5.5.5.5.5.,.` R R R R R R R R R R R R R R R R ",
"Y Y Y Y Y Y Y Y Y Y Y Y Y Y Y Y Q *.4.4.4.4.4.4.4.4.4.4.4.4.4.4.4.4.4.4.4.4.4.4.4.4.4.4.4.4.4.*.Q Y Y Y Y Y Y Y Y Y Y Y Y Y Y Y ",
"q q q q q q q q q q q q q q q q q g h h h h h h h h h h h h h h h h h h h / / h h h h h h h h g q q q q q q q q q q q q q q q q ",
"6 6 6 6 6 6 6 6 6 6 6 6 6 6 6 6 5 9 p a a a a a a a a a a a a a a a a a a a a a a a a a a a p 9 5 6 6 6 6 6 6 6 6 6 6 6 6 6 6 6 ",
"5 5 5 5 5 5 5 5 5 5 5 5 5 5 5 5 5 5 9 p a a a a a a a a a a a a a a a a a a a a a a a a a p 9 5 5 5 5 5 5 5 5 5 5 5 5 5 5 5 5 5 ",
"5 5 5 5 5 5 5 5 5 5 5 5 5 5 5 5 5 5 5 9 p p p a a a a a a a a a a a a a a a a a a a p p p 9 5 5 5 5 5 5 5 5 5 5 5 5 5 5 5 5 5 5 ",
"5 5 5 5 5 5 5 5 5 5 5 5 5 5 5 5 5 5 5 5 9 9 9 p p p p a a a a a a a a a a a p p p p 9 9 t 0 9 0 5 5 5 5 5 5 5 5 5 5 5 5 5 5 5 5 ",
"5 5 5 5 5 5 5 5 5 5 5 5 5 5 5 5 5 t t t 5 5 0 9 9 9 9 p p p p p p p p p p p 9 9 9 9 5 9 O.o.t / 0 5 5 5 5 5 5 5 5 5 5 5 5 5 5 5 ",
"5 5 5 5 5 5 5 5 5 5 5 5 5 5 5 5 0 %.3.%.0 0 @.t 0 5 5 9 9 y y y y y y t 9 9 0 9 5 5 5 t d s 9 0 5 5 5 5 5 5 5 5 5 5 5 5 5 5 5 5 ",
"5 5 5 5 5 5 5 5 5 5 5 5 5 5 5 5 9 d f t 5 5 0 t +.0 5 5 0 %.2.2.2.2.2.%.0 0 +.0 5 5 0 %.2.%.0 5 5 5 5 5 5 5 5 5 5 5 5 5 5 5 5 5 ",
"5 5 5 5 5 5 5 5 5 5 5 5 5 5 5 5 0 %.%.0 5 t w 9 y t t t t d y f f f f f t 9 d t 9 t t t d t 5 5 5 5 5 5 5 5 5 5 5 5 5 5 5 5 5 5 ",
"5 5 5 5 5 5 5 5 5 5 5 5 5 5 5 5 5 t t 5 0 &.%.y O.1.2.2.3.$.y $.2.2.2.2.%.y $.%.y %.%.y +.0 5 5 5 5 5 5 5 5 5 5 5 5 5 5 5 5 5 5 ",
"5 5 5 5 5 5 5 5 5 5 5 5 5 5 5 5 5 5 5 5 5 t d y d f t t t d t t f f f f t 9 s f y f d 9 t t t 5 5 5 5 5 5 5 5 5 5 5 5 5 5 5 5 5 ",
"5 5 5 5 5 5 5 5 5 5 5 5 5 5 5 5 5 5 5 5 5 0 $.2.2.$.0 4 0 %.%.y $.2.2.$.0 9 O.1.2.2.%.0 0 %.%.0 5 5 5 5 5 5 5 5 5 5 5 5 5 5 5 5 ",
"5 5 5 5 5 5 5 5 5 6 5 5 5 5 5 5 5 5 5 5 5 9 d f y d t t t f f t t d y d t t d f f f t w 9 d d 9 5 5 5 5 5 5 5 5 5 5 5 5 5 5 5 5 ",
"5 5 5 5 5 5 5 6 5 2 5 5 5 5 6 5 8 5 5 5 5 0 %.%.y $.3.2.2.2.2.%.y +.y $.3.2.2.2.2.$.y +.y %.%.0 5 5 5 5 5 5 5 5 5 5 5 5 5 5 5 5 ",
"5 5 5 5 5 5 5 2 < $ 2 6 5 5 2 8 ! 8 5 5 5 5 t w 9 w t t t t t w 9 0 9 w t t t t t w 9 0 9 t w 5 5 5 5 5 5 5 5 5 5 5 5 5 5 5 5 5 ",
"5 5 5 5 5 5 1 $ O o 2 6 5 1 * , & 3 6 5 5 0 9 w t t t t t w 9 w t w 9 0 9 0 9 w t t t w 5 5 0 9 0 5 5 5 5 5 5 5 5 5 5 5 5 5 5 5 ",
"5 5 5 5 6 2 $ < , O < 6 2 $ > o X 2 5 5 0 +.y %.3.2.2.2.3.%.y %.3.%.y +.s +.y %.3.2.3.%.0 0 +.s +.0 5 5 5 5 5 5 5 5 5 5 5 5 5 5 ",
"5 5 5 5 6 2 + < +   O 1 < X .   O 2 e 6 5 0 9 t t t t t t w 9 w t w 9 0 9 0 9 w t t t t 5 5 0 9 0 5 5 5 5 5 5 5 5 5 5 5 5 5 5 5 ",
"5 5 5 5 6 2 % 1 #     . .     @ 1 e q.e 5 5 5 5 w t t w 9 w t w 9 w t t t w 9 w t w 5 5 0 5 5 5 5 5 5 5 5 5 5 5 5 5 5 5 5 5 5 5 ",
"5 5 5 5 5 4 1 7 7.% O O O O # i e e w.r 5 5 5 0 %.3.3.%.y %.3.%.y %.3.2.3.%.y %.3.%.0 0 #.0 5 5 5 5 5 5 5 5 5 5 5 5 5 5 5 5 5 5 ",
"5 5 5 5 6 2 = 2 u 9.0.0.0.8.5 u 7 e q.e 5 5 5 5 t t t w 9 w t w 9 w t t t w 9 w t w 5 5 0 5 5 5 5 5 5 5 5 5 5 5 5 5 5 5 5 5 5 5 ",
"5 5 5 5 5 5 2 5 6 r 6.6.6.r r q.e 6 e 6 5 5 5 5 5 w w 9 w t t t t t t w 9 w t t t w 9 0 9 0 5 5 5 5 5 5 5 5 5 5 5 5 5 5 5 5 5 5 ",
"5 5 5 5 5 5 6 5 5 e q.w.q.e e q.e 5 5 5 5 5 5 5 0 &.%.y $.3.2.2.2.2.2.%.y $.2.2.2.%.y +.s +.0 5 5 5 5 5 5 5 5 5 5 5 5 5 5 5 5 5 ",
"5 5 5 5 5 5 5 5 5 6 e r e 6 6 e 6 5 5 5 5 5 5 5 5 t t t d y f f f f f t t f f f f t t t 9 0 5 5 5 5 5 5 5 5 5 5 5 5 5 5 5 5 5 5 ",
"5 5 5 5 5 5 5 5 5 5 5 5 5 5 5 5 5 5 5 5 5 5 5 5 5 5 0 &.%.y $.2.2.2.$.y $.2.2.2.$.y +.0 5 5 5 5 5 5 5 5 5 5 5 5 5 5 5 5 5 5 5 5 ",
"5 5 5 5 5 5 5 5 5 5 5 5 5 5 5 5 5 5 5 5 5 5 5 5 5 5 5 t t 9 t t f f t t f f f f d 0 s 9 5 5 5 5 5 5 5 5 5 5 5 5 5 5 5 5 5 5 5 5 ",
"5 5 5 5 5 5 5 5 5 5 5 5 5 5 5 5 5 5 5 5 5 5 5 5 5 5 5 5 5 5 5 0 %.%.y $.2.2.2.2.$.y +.0 5 5 5 5 5 5 5 5 5 5 5 5 5 5 5 5 5 5 5 5 ",
"5 5 5 5 5 5 5 5 5 5 5 5 5 5 5 5 5 5 5 5 5 5 5 5 5 5 5 5 5 5 t t d t 9 s y f f y s 0 s t 5 5 5 5 5 5 5 5 5 5 5 5 5 5 5 5 5 5 5 5 ",
"5 5 5 5 5 5 5 5 5 5 5 5 5 5 5 5 5 5 5 5 5 5 5 5 5 5 5 5 5 0 %.3.%.0 0 +.y %.%.y +.y %.&.0 5 5 5 5 5 5 5 5 5 5 5 5 5 5 5 5 5 5 5 ",
"5 5 5 5 5 5 5 5 5 5 5 5 5 5 5 5 5 5 5 5 5 5 5 5 5 5 5 5 5 5 t t t 5 5 0 9 t t 9 0 9 t t 5 5 5 5 5 5 5 5 5 5 5 5 5 5 5 5 5 5 5 5 ",
"5 5 5 5 5 5 5 5 5 5 5 5 5 5 5 5 5 5 5 5 5 5 5 5 5 5 5 5 5 5 5 5 5 5 5 5 5 5 5 5 5 5 5 5 5 5 5 5 5 5 5 5 5 5 5 5 5 5 5 5 5 5 5 5 "
};
