/* XPM */
static char *be2c02dbc8e94df3a16913e540442e00VXAElhNhHKfB9qcw[] = {
/* columns rows colors chars-per-pixel */
"64 64 162 2 ",
"   c #A7A55D",
".  c #A8A65D",
"X  c #B2B05F",
"o  c #B6B460",
"O  c #B5B360",
"+  c #B4B260",
"@  c #AAA85E",
"#  c #A6A45D",
"$  c #B2B05F",
"%  c #B6B460",
"&  c #B0AE5F",
"*  c #ABA95E",
"=  c #B1AF5F",
"-  c #B7B560",
";  c #ACAA5E",
":  c #ADAB5E",
">  c #A5A35D",
",  c #AFAD5F",
"<  c #B3B15F",
"1  c #B3B160",
"2  c #AEAC5F",
"3  c #AEAC5E",
"4  c #B6B460",
"5  c #B0AE5F",
"6  c #A8A65D",
"7  c #B2B05F",
"8  c None",
"9  c #AAA85D",
"0  c #A7A55D",
"q  c #B2B05F",
"w  c #B3B160",
"e  c #A9A75D",
"r  c #AFAD5F",
"t  c #B4B260",
"y  c #ABA95E",
"u  c #A6A45D",
"i  c #B1AF5F",
"p  c #B6B460",
"a  c #AAA85E",
"s  c #AEAC5E",
"d  c #ADAB5E",
"f  c #B0AE5F",
"g  c #ACAA5E",
"h  c #AEAC5F",
"j  c #B4B260",
"k  c #B1AF5F",
"l  c #B2B060",
"z  c #ADAB5E",
"x  c #ACAA5E",
"c  c #B0AE5F",
"v  c #B3B15F",
"b  c #AFAD5F",
"n  c #B5B360",
"m  c #B1AF5F",
"M  c #B6B461",
"N  c #B4B260",
"B  c #AEAC5E",
"V  c #A9A75D",
"C  c #ADAB5F",
"Z  c #AFAD5E",
"A  c #AEAC5F",
"S  c #A8A65E",
"D  c #B3B160",
"F  c #A8A65C",
"G  c #B1AF5E",
"H  c #ACAA5D",
"J  c #B5B35F",
"K  c #AFAD5E",
"L  c #A19B4C",
"P  c #A39D4C",
"I  c #A19B4C",
"U  c #A49E4C",
"Y  c #A39D4C",
"T  c #978F3D",
"R  c #968E3D",
"E  c #968E3D",
"W  c #968E3D",
"Q  c #978E3D",
"!  c #978F3D",
"~  c #968F3D",
"^  c #958D3B",
"/  c #958D3B",
"(  c #958D3B",
")  c #948C3B",
"_  c #958D3B",
"`  c #948D3B",
"'  c #958C3B",
"]  c #968E3C",
"[  c #968E3C",
"{  c #968E3C",
"}  c #ABA95E",
"|  c #ACAA5E",
" . c #A8A65D",
".. c #A7A55D",
"X. c #AAA85E",
"o. c #A9A75E",
"O. c #A6A45D",
"+. c #A9A75D",
"@. c #B5B360",
"#. c #B4B260",
"$. c #AAA85D",
"%. c #B2B05F",
"&. c #A6A45C",
"*. c #B1AF5F",
"=. c #B6B460",
"-. c #ADAB5E",
";. c #B0AE5F",
":. c #A5A35D",
">. c #AFAD5F",
",. c #AEAC5E",
"<. c #AFAD5E",
"1. c #AEAC5F",
"2. c #B4B25F",
"3. c #ADAB5F",
"4. c #B3B15F",
"5. c #B6B461",
"6. c #B3B160",
"7. c #B2B060",
"8. c #A5A35C",
"9. c #B5B361",
"0. c #B5B35F",
"q. c #B2AF5F",
"w. c #B0AE5E",
"e. c #B2B160",
"r. c #B5B460",
"t. c #B5B461",
"y. c #ACAB5E",
"u. c #B1AF60",
"i. c #B6B360",
"p. c #ACAB5F",
"a. c #A5A45D",
"s. c #A9A65D",
"d. c #AFAE5F",
"f. c #A8A65E",
"g. c #A7A45C",
"h. c #B1AF5E",
"j. c #B5B25F",
"k. c #B1AE5E",
"l. c #ADAB5D",
"z. c #ABA95D",
"x. c #A6A35C",
"c. c #ACAA5D",
"v. c #B0AD5E",
"b. c #A7A65C",
"n. c #AEAB5D",
"m. c #AEAB5E",
"M. c #AEAC5D",
"N. c #A7A55C",
"B. c #A19B4C",
"V. c #A09A4C",
"C. c #A39D4C",
"Z. c #A49E4C",
"A. c #A29B4C",
"S. c #A19A4B",
"D. c #A39C4C",
"F. c #A29C4C",
"G. c #A19B4B",
"H. c #A39E4C",
"J. c #A09A4B",
"K. c #A49D4C",
"L. c #968E3C",
"P. c white",
/* pixels */
"  } | | | | }  ...X.| | | | |  ...} | | | | |  ...X.| | | | | o...X.| | | | | o...X.| | | | | X...o.| | | | | o.O.+.| | | | | X.",
". X o O O O + @ # $ % $ & O O * # = % O O O O * # & - $ & + % ; # & % O O O % : > , % < & 1 % 2 # 3 O O O O % , # : % + & < 4 5 ",
"6 7 4 8 8 8 8 9 0 q w e 0 r t y u i p 8 8 p p y u i t a u s 8 d u f p 8 8 8 p d u r t g u g 8 h u h p 8 8 8 p r u d 8 d u y j k ",
". l % @.@.@.#.$...%.} &.O...*.} O.%.=.#.@.@.@.} O.*.-.O.O.O.;.-.O.;.@.@.@.@.=.-.:.>.,.:.O.O.<.>.O.1.=.@.@.2.=.>.O.1.;.O.O.:.z = ",
". l % @.@.@.#.$...%.X.$.|  .*.| O.%.=.@.@.@.@.} O.*.| +.-. .>.-.O.;.@.@.@.@.=.-.:.;.-. .-. .,.>.O.1.=.@.@.@.=.>.O.1.>. .-. .x = ",
". l % @.@.@.#.$...%.>.>.*.-.%.} ..%.=.@.@.@.@.} O.*.;.1.*.-.*.-.O.;.@.@.@.@.=.-.:.>.*.-.*.3.*.>.O.1.=.@.@.@.=.>.O.3.*.-.*.,.c = ",
". l % @.@.@.#.$...%.%.| } >.#.} ..%.=.@.@.@.@.} O.;.4.-.} 1.#.-.O.;.@.@.5.@.=.-.O.>.6.3.} 3.6.1.O.1.=.@.@.@.=.>.O.-.#.,.X.-.v & ",
". l % @.@.@.#.$...%.1.%.@.3.%.} ..%.=.@.@.@.@.} O.*.>.*.=.,.*.-.O.;.=.@.@.@.=.-.:.>.;.;.=.>.;.>.O.1.=.@.@.@.=.>.O.1.*.1.=.;.b & ",
". X O =.=.@.#.$...%.@.@.@.@.@.X...%.=.@.=.@.@.} O.;.=.@.@.@.@.| O.;.=.@.=.@.=.-.O.1.@.@.=.@.@.1.O.1.=.@.=.@.=.>.O.-.@.@.@.@.n & ",
". l % %.*.@.@.$.O.7.=.@.@.@.@.X...%.=.%.*.#.=.} O.;.=.@.@.@.@.| O.;.=.4.*.#.=.-.O.1.5.@.@.@.=.1.O.1.5.#.*.6.=.>.O.-.=.@.@.@.4 & ",
". X 1 o...;.#.$.O.7.@.@.@.@.@.X...*.4.$...<.@.| O.;.=.@.@.@.@.| O.;.#.} ..-.@.-.:.1.=.@.@.@.=.>.O.1.#.| O.| #.>.O.-.@.@.@.@.4 & ",
". m @ O.O. .%.} O.7.@.@.@.@.@.X...*.| 8.O...*.| O.;.=.@.@.@.@.| O.;.,.:.O.O.;.,.:.1.=.@.@.@.=.>.O.<.>.O.O.O.1.;.O.-.@.@.@.@.M & ",
". m @ X.}  .*.} O.7.@.@.@.@.@.X...*.} +.|  .;.| O.;.=.@.@.@.@.| O.;.-. .| ..>.1.:.1.=.@.@.@.=.>.O.<.,. .|  .-.;.O.-.@.@.@.@.4 & ",
". X 3 >.;.-.%.X.O.7.@.@.@.@.@.X...*.>.,.*.-.%.| O.;.=.@.@.@.@.| O.;.;.-.*.-.*.1.:.1.=.@.@.@.=.>.O.1.*.-.*.-.;.>.O.-.@.@.@.@.4 & ",
". X $ } X.;.#.X.O.7.@.@.@.@.@.X...*.6.| X.>.#.} O.;.=.@.@.@.@.| O.;.#.-.$.,.#.-.:.1.=.@.@.@.=.>.O.1.#.,.X.-.#.>.O.-.@.@.@.@.4 & ",
". X 2 %.#.-.%.} O.7.@.@.@.@.@.X...*.1.*.@.1.%.| O.;.=.@.@.@.@.| O.;.>.;.=.>.*.,.:.1.=.@.@.@.=.>.O.,.;.1.=.>.;.;.O.-.@.@.@.@.4 & ",
". l O @.@.@.#.X.O.7.@.@.=.@.@.X...*.@.@.@.@.@.} O.;.=.@.=.@.@.| O.;.@.@.@.@.@.-.O.>.5.@.=.@.=.1.O.1.@.@.@.#.@.>.O.-.@.@.=.@.4 & ",
". X % @.@.@.@.$.O.%.=.4.%.@.@.X...*.=.@.@.@.@.| O.;.=.4.%.@.=.| O.;.=.@.@.@.=.-.O.>.5.#.%.#.=.1.O.1.=.@.@.@.=.>.O.-.=.#.*.6.4 & ",
". l % @.@.@.#.$.O.%.4.$...;.@.} ..%.=.@.@.@.@.} O.*.#.} ..,.@.| O.;.@.@.9.@.=.-.:.>.@.| ..-.@.1.O.1.=.@.@.@.=.>.O.-.@.,...} N = ",
". l % @.@.@.#.$...%.| &.O. .%.} ..%.=.@.@.@.@.} O.*.3.O.&...*.-.O.;.@.@.@.@.=.-.:.>.>.O.&.O.>.>.O.1.=.@.@.@.=.>.O.1.;.O.&.:.B = ",
". l % @.@.@.#.$...%.X.+.} ..*.| O.%.=.@.@.@.@.} O.;.|  .} ..>.,.O.;.@.@.@.@.=.-.:.;.,. .| ..,.>.O.1.=.@.@.@.=.>.O.1.>...}  .z = ",
". l % @.@.@.#.$...%.,.>.*.| %.} ..%.=.@.@.@.@.} O.;.<.1.7.| *.-.O.;.@.@.@.@.=.-.:.>.;.3.%.-.;.>.O.1.=.@.@.@.=.>.O.-.*.-.%.,.b = ",
". l % @.@.@.#.$...7.6.| X.;.#.} ..%.=.@.@.@.@.} O.;.#.-.X.>.2.-.O.;.@.@.9.@.=.-.:.>.#.3.X.,.#.>.O.1.=.@.@.@.=.>.O.-.#.1.X.-.N & ",
". l % @.#.@.#.$...7.1.*.#.-.%.} ..%.=.#.#.@.@.} O.;.>.;.@.,.*.-.O.;.=.@.@.@.=.-.:.>.;.>.@.>.;.>.O.1.=.@.#.2.=.>.O.,.*.,.@.>.b = ",
". X % @.=.@.#.$...%.@.@.=.@.@.} ..%.=.@.=.@.@.} O.;.@.#.@.#.@.-.O.;.=.@.@.@.@.-.:.>.@.@.=.@.@.1.O.1.=.@.=.@.=.>.O.-.@.#.=.@.n & ",
". l % 6.6.@.@.$.O.%.=.@.@.@.@.X.O.*.=.6.7.@.@.} O.;.=.@.@.@.@.| O.;.=.#.7.#.=.-.O.>.5.@.@.@.=.1.O.1.=.#.7.#.=.>.O.-.=.@.@.@.4 & ",
". X < +. .*.@.$.O.7.@.@.@.@.@.X.O.*.#.} ..>.@.} O.;.=.@.@.@.@.| O.;.@.| ..,.@.-.O.>.=.@.@.@.=.>.O.,.@.,...| @.<.O.-.@.0.@.@.4 & ",
". m * &.&.+.%.} O.7.@.@.@.@.@.X...*.| O.&...*.| O.;.=.@.@.@.@.| O.;.,.O.&...;.,.:.1.=.@.@.@.=.>.O.,.;...&.O.>.;.O.-.@.@.@.@.4 & ",
". m V +.X. .%.} O.7.@.@.@.@.@.X...*.}  .} ..;.| O.;.=.@.@.@.@.| O.*.-...} ..>.,.:.1.=.@.@.@.=.>.O.<.1...} ..-.;.O.-.@.@.@.@.4 & ",
". m : ;.*.| %.} O.7.@.@.@.@.@.X...*.1.>.%.| %.| O.;.=.@.@.@.@.| O.;.>.-.7.-.;.,.:.1.=.@.@.@.=.>.O.,.;.-.%.-.>.;.O.-.@.@.@.@.4 & ",
". X $ } X.;.#.$.O.7.@.@.@.@.@.X...*.6.| X.>.#.} O.;.=.@.@.@.@.| O.;.6.-.X.,.#.-.:.1.=.@.@.@.=.>.O.1.#.1.X.-.#.>.O.-.@.@.@.@.4 & ",
". X C *.6.-.7.} O.7.@.#.@.@.@.X...*.1.;.#.-.*.| O.;.=.@.@.@.@.| O.;.>.>.@.-.;.,.:.1.5.@.@.@.=.>.O.,.;.1.#.1.>.;.O.-.@.@.@.@.4 & ",
". X O @.@.#.#.$.O.7.@.@.@.@.@.X...*.@.@.=.#.@.| O.;.=.@.@.@.@.| O.;.@.@.=.#.@.-.O.>.5.@.@.@.=.>.O.1.@.#.=.#.@.>.O.-.@.@.@.@.4 & ",
". X % @.@.=.@.$.O.%.=.6.6.@.@.X.O.*.=.@.@.@.@.} O.;.=.#.4.@.=.| O.;.=.@.@.@.=.-.O.>.5.#.4.#.=.1.O.1.=.@.@.@.=.>.O.-.=.#.6.#.4 & ",
". l % @.@.@.#.$.O.%.#.}  .*.@.X...%.=.@.@.@.@.} O.;.@.|  .;.@.| O.;.@.@.5.@.=.-.O.>.@.-...,.=.1.O.1.=.@.@.2.=.>.O.-.=.>...-.n = ",
". l % @.@.@.#.$...%.| O.O. .%.} O.%.=.@.@.@.@.} O.*.-.O.O...;.-.O.;.@.@.@.@.=.-.:.>.<.O.O...;.>.O.1.=.@.@.@.=.>.O.1.;...O.O.B = ",
". l % @.@.@.#.$...%.X. .$...*.| O.%.=.@.@.@.@.} O.*.| ..X...>.,.O.;.@.@.@.@.=.-.:.;.-...X...,.>.O.1.=.@.@.@.=.>.O.1.>...$...z = ",
". l % @.@.@.#.$...%.-.>.%.| %.} O.%.=.@.@.@.@.} O.;.1.1.7.| *.-.O.;.@.@.@.@.=.-.:.>.>.-.%.| ;.>.O.1.=.@.@.@.=.>.O.1.*.| %.,.b = ",
". l % @.@.@.#.$...%.4.| X.;.#.} ..%.=.@.@.@.@.} O.*.#.-.X.<.#.-.O.;.@.@.5.@.=.-.O.>.#.3.X.,.#.1.O.1.=.@.@.@.=.>.O.-.@.>.X.-.N = ",
". l % @.@.@.#.$...%.,.*.6.-.%.} ..%.=.#.@.@.@.} O.*.>.;.#.-.*.-.O.;.@.@.@.@.=.-.:.>.;.1.#.,.;.>.O.1.=.@.@.@.=.>.O.1.*.,.#.>.b = ",
". X % @.=.@.#.$...%.#.@.=.#.#.} ..%.=.@.@.@.@.} O.;.#.#.=.#.#.-.O.;.@.@.=.@.=.-.O.>.@.#.=.#.@.1.O.1.=.@.@.@.=.>.O.-.@.#.=.#.n = ",
". X % 6.6.@.@.$.O.%.=.@.@.@.@.X...*.=.#.6.@.@.| O.;.=.@.@.=.@.| O.;.=.#.6.#.=.-.O.>.5.@.@.@.=.1.O.1.=.#.6.#.=.>.O.-.=.@.@.@.4 & ",
". X + X.+.7.@.$.O.7.@.@.@.@.@.X...%.@.}  .;.@.} O.;.=.@.@.@.@.| O.;.@.3. .>.=.-.O.>.=.@.@.@.=.>.O.1.=.>. .,.=.>.O.-.@.@.@.@.4 & ",
". m * O.O.+.%.} O.7.@.@.@.@.@.X...*.-.O.O. .*.| O.;.=.@.@.@.@.| O.;.<.O.O...;.,.:.1.=.@.@.@.=.>.O.,.;...O...>.;.O.-.@.@.@.@.M & ",
". m V  .+...*.} O.7.@.@.@.@.@.X...*.} ..+...;.| O.;.=.@.@.@.@.| O.;.-...X...<.,.:.1.=.@.@.@.=.>.O.<.1...$...-.;.O.-.@.@.@.@.4 & ",
". m ; >.*.} %.} O.7.@.@.@.@.@.X...*.-.,.%.| *.| O.;.=.@.@.@.@.| O.;.1.-.%.| ;.,.:.1.=.@.@.@.=.>.O.<.;.| %.-.>.>.O.-.@.@.@.@.4 & ",
". X 1 } X.*.#.X.O.7.@.@.@.@.@.X...*.6.| X.;.#.} O.;.=.@.@.@.@.| O.;.#.-.$.1.@.-.:.1.=.@.@.@.=.>.O.,.#.,.X.,.#.>.O.-.@.@.@.@.4 & ",
". m 3 *.4.-.%.} O.7.@.@.@.@.@.X...*.1.;.6.-.*.| O.;.=.@.@.@.@.| O.;.>.,.6.-.*.,.:.1.=.@.@.@.=.>.O.<.*.,.6.,.;.>.O.-.@.@.@.@.4 & ",
". X + @.=.6.#.X.O.7.@.@.@.@.@.X...*.#.#.=.#.#.} O.;.=.@.@.@.@.| O.;.#.#.=.6.#.-.:.1.5.@.@.@.=.>.O.,.#.#.=.2.#.>.O.-.@.@.@.@.4 & ",
". l % @.@.=.@.$.O.7.=.#.#.=.@.X...*.=.@.@.@.@.} O.;.=.#.#.@.@.| O.;.=.@.@.@.=.-.O.>.5.#.#.@.=.1.O.1.5.@.@.@.=.>.O.-.=.@.#.#.4 & ",
". X O @.@.@.#.$.O.%.@.} +.*.@.} ..%.=.@.@.@.@.} O.;.@.-. .;.@.| O.;.@.@.@.@.=.-.:.>.=.,. .,.=.1.O.1.=.@.@.@.=.>.O.-.=.;. .-.4 = ",
". l % @.@.@.#.$...7.-.O.O.+.%.} ..%.=.@.@.@.@.} O.;.,.O.O. .*.-.O.;.@.@.@.@.=.-.:.>.;...O...;.>.O.1.=.@.@.@.=.>.O.,.*. .O...Z = ",
". l % @.@.@.#.$...%.X...+...*.| O.%.=.@.@.@.@.} O.*.| ..+...>.-.O.;.@.@.@.@.=.-.:.;.-.O.+.O.,.>.O.1.=.@.@.@.=.>.O.1.>...+...z = ",
". l % @.@.@.#.$...%.| <.%.} *.} ..%.=.@.@.@.@.} O.*.-.-.%.} ;.-.O.;.@.@.@.@.=.-.:.>.<.-.6.| >.>.O.1.=.@.@.@.=.>.O.1.;.| 4.-.A = ",
". l % @.@.@.#.$...%.6.| } ;.#.} ..%.=.@.@.@.@.} O.*.#.-.X.>.#.-.O.;.@.@.9.@.=.-.O.>.#.1.X.1.#.1.O.1.=.@.@.@.=.>.O.-.@.>.X.-.N = ",
". l % @.@.@.#.$...%.1.;.4.-.%.} ..%.=.#.@.@.@.} O.;.>.>.4.-.*.-.O.;.=.@.@.@.=.-.:.>.;.1.6.1.;.>.O.1.=.@.@.2.=.>.O.1.*.-.4.>.b = ",
". X % @.@.@.#.$...%.6.@.=.6.#.} ..%.=.@.@.@.@.} O.*.#.#.=.6.2.-.O.;.=.@.@.@.=.-.:.>.#.#.=.#.#.>.O.1.=.@.@.@.=.>.O.-.#.6.=.#.N & ",
". X % #.#.@.#.$.O.%.=.0.@.@.@.X.O.q.=.@.#.@.@.} O.;.=.@.0.@.@.| O.w.=.@.#.@.=.-.O.1.=.@.0.@.=.1.O.,.=.@.#.#.=.>.&.-.=.@.@.@.4 & ",
"S D O } o.e.9.X...7.=.@.r.r.@.} O.7.t.y.o.u.5.| O.u.5.@.i.@.=.p.a.;.5.1.s.d.5.,.a.>.5.r.r.@.=.1.a.1.=.>.f.1.5.>.O.3.=.@.r.@.4 = ",
"F G H &.&.+.*.$.g.h.j.2.2.2.2.$.&.k.l.g.&.s.h.z.x.w.0.2.2.2.j.c.x.v.,.g.&.b.w.n.x.,.2.2.2.2.0.m.8.M.v.N.&.N.<.<.8.c.2.2.2.2.J K ",
"L P I B.B.V.C.B.B.C.Z.Z.Z.Z.Z.A.B.C.B.S.B.V.D.F.G.C.Z.H.Z.Z.Z.F.G.C.F.J.B.J.F.F.J.F.Z.K.Z.Z.Z.F.J.F.F.V.B.J.F.C.V.F.Z.Z.Z.K.U Y ",
"T R E W W Q Q Q ! W W W W W W ! W W ! W W ~ W ~ ~ W W W W W W W ! W W ! W ! W W ! W W W W W W W ~ W W ~ W W ! Q W ! W W W W R E ",
"^ / ( ) ) _ _ _ _ _ _ _ _ _ _ _ ) _ _ ) ) ` _ _ ) _ _ _ _ _ _ _ _ _ _ ' ) _ _ _ _ _ _ _ _ _ _ _ ) _ _ ) ) ) _ _ ) _ _ _ _ _ / ( ",
"] [ { L.L.L.L.L.L.L.L.L.L.L.L.L.L.L.L.L.L.L.L.L.L.L.L.L.L.L.L.L.L.L.L.L.L.L.L.L.L.L.L.L.L.L.L.L.L.L.L.L.L.L.L.L.L.L.L.L.L.L.[ { "
};
